<svg xmlns="http://www.w3.org/2000/svg" viewBox="0 0 200 200">
  <defs>
    <linearGradient id="b1" x1="0%" y1="0%" x2="100%" y2="100%">
      <stop offset="0%" stop-color="#29B6F6"/>
      <stop offset="100%" stop-color="#1565C0"/>
    </linearGradient>
    <linearGradient id="g1" x1="0%" y1="100%" x2="100%" y2="0%">
      <stop offset="0%" stop-color="#2E7D32"/>
      <stop offset="100%" stop-color="#8BC34A"/>
    </linearGradient>
  </defs>
  <!-- Blue upper C-swoosh -->
  <path d="M100,15 C60,15 28,42 22,78 L22,82 C24,60 38,42 58,32 C70,26 84,23 100,25 C130,25 156,40 170,64 L156,72 C144,52 124,40 100,40 C82,40 66,48 56,62 C50,70 46,80 46,92 C46,94 46,96 47,98 L60,90 C60,88 60,86 60,84 C60,68 78,55 100,55 C116,55 130,63 138,76 L154,64 C140,40 122,28 100,28 C100,28 100,15 100,15Z" fill="url(#b1)"/>
  <!-- Green lower S-swoosh -->
  <path d="M47,98 C48,110 54,122 64,131 C74,140 88,145 104,144 C120,143 134,136 142,124 L128,116 C122,124 112,130 100,130 C84,130 70,120 66,106 C64,100 65,94 68,89 L55,82 C50,87 47,92 47,98Z M154,64 L138,76 C144,86 148,98 148,110 C148,130 138,148 122,158 C112,164 100,167 88,165 C74,163 62,156 54,145 L40,154 C52,170 72,180 94,182 C120,184 144,172 158,152 C168,138 174,122 174,104 C174,88 168,74 158,62 L154,64Z" fill="url(#g1)"/>
</svg>
